<?xml version="1.0" encoding="utf-8"?>
<!-- Generator: Adobe Illustrator 17.1.0, SVG Export Plug-In . SVG Version: 6.00 Build 0)  -->
<!DOCTYPE svg PUBLIC "-//W3C//DTD SVG 1.1//EN" "http://www.w3.org/Graphics/SVG/1.1/DTD/svg11.dtd">
<svg version="1.1" id="Capa_1" xmlns="http://www.w3.org/2000/svg" xmlns:xlink="http://www.w3.org/1999/xlink" x="0px" y="0px"
	 viewBox="0 0 400 600" enable-background="new 0 0 400 600" xml:space="preserve">
<g>
	<g>
		<path fill="#CCC6C9" d="M151.7,388.8 M153,388.8"/>
	</g>
</g>
<radialGradient id="SVGID_1_" cx="202" cy="197.4494" r="200.0133" gradientTransform="matrix(1 0 0 1.4999 0 0.8363)" gradientUnits="userSpaceOnUse">
	<stop  offset="0.175" style="stop-color:#FFFFFF"/>
	<stop  offset="0.625" style="stop-color:#FFFFFF"/>
	<stop  offset="0.6954" style="stop-color:#F7F7F7"/>
	<stop  offset="0.8038" style="stop-color:#E3E2E2"/>
	<stop  offset="0.9359" style="stop-color:#C1BFBF"/>
	<stop  offset="1" style="stop-color:#AEABAB"/>
</radialGradient>
<rect x="0" opacity="0.2" fill="url(#SVGID_1_)" width="400" height="600"/>
<g>
	<defs>
		<path id="SVGID_2_" d="M196.9,112.7c0,0-49.8-77.3-113.1-9.9c0,0-32.2,51.4,4.5,95.8c41.5,50.2,109.1,103.7,109.1,103.7
			s96.1-79.3,109.7-104.6c18.5-34.3,30.2-75.7-14.4-109.8c-10.6-8.1-5.1-3.6-5.1-3.6s-23.3-20.8-63.2,2.5
			C224.4,86.7,212.2,90.6,196.9,112.7z"/>
	</defs>
	<clipPath id="SVGID_3_">
		<use xlink:href="#SVGID_2_"  overflow="visible"/>
	</clipPath>
	<g clip-path="url(#SVGID_3_)">
		<polyline fill="#BE2758" points="199,116.7 231.7,135.1 214.6,79.6 195.7,114.6 		"/>
		<polygon fill="#CE5390" points="214.6,79.6 247.2,62.3 259.6,87.7 		"/>
		<polyline fill="#99375A" points="215.6,79.4 260,87.7 231.3,134.8 214.6,79.6 		"/>
		<polygon fill="#AF346F" points="232.2,135.4 236,177.5 195.9,113.6 		"/>
		<polygon fill="#CC4072" points="236,177.5 291.6,137.3 231.3,134.8 		"/>
		<polygon fill="#94335D" points="231.3,134.8 260.8,116.8 291.2,137.4 		"/>
		<polygon fill="#B44575" points="260,87.7 261.5,117.5 231.3,134.8 		"/>
		<polygon fill="#CC4072" points="247.2,62.3 274.6,58.6 259.6,87.7 		"/>
		<polyline fill="#822142" points="275.6,58.6 301.2,72.4 259.6,87.7 274.6,58.6 		"/>
		<polygon fill="#B62B57" points="301.2,72.4 299.5,116.4 259.6,87.7 		"/>
		<polygon fill="#922346" points="260,87.7 300,116.6 291.2,137.4 		"/>
		<polygon fill="#AF3A64" points="260,87.7 260.8,117.1 291.4,137.8 		"/>
		<polygon fill="#751E41" points="300,116.6 327.9,160.5 332.4,131.9 		"/>
		<polygon fill="#B24071" points="299.5,116.4 332.4,131.9 328.9,106.3 		"/>
		<polygon fill="#A42956" points="301.2,72.4 328.9,106.3 299.3,116.7 		"/>
		<polygon fill="#813359" points="300,116.6 291.2,137.4 327.9,160.5 		"/>
		<polygon fill="#993961" points="291.2,137.4 289.8,174.3 327.9,160.5 		"/>
		<polyline fill="#802E4C" points="290.2,138.7 256.3,191.5 290.6,174.4 291.2,137.4 		"/>
		<polygon fill="#AF3A64" points="291.2,137.4 235.2,178.1 256.3,191.5 		"/>
		<polygon fill="#AF3A64" points="233.2,175.3 233.3,230 256.5,220.8 		"/>
		<polygon fill="#983363" points="256.5,220.8 256.8,191.1 252.8,188.8 233.2,175.3 		"/>
		<polygon fill="#852350" points="256.8,191.1 256.5,220.8 284.7,226.8 		"/>
		<polygon fill="#9D3A64" points="256.8,191.1 290.2,174.3 284.7,226.8 		"/>
		<polygon fill="#813359" points="289.4,173.9 327.9,160.5 313.3,190.1 		"/>
		<polygon fill="#802E4C" points="290.3,173.9 313.3,190.1 284.7,226.8 		"/>
		<polyline fill="#751E41" points="256.5,220.8 284.7,226.8 253.1,255.8 256.8,221.8 253.1,255.8 234,229.7 		"/>
		<polygon fill="#993961" points="234.2,229.3 213.3,259.1 253.1,255.8 		"/>
		<polyline fill="#813359" points="213.1,258.3 225.6,279.3 253.5,255.7 214.6,258.3 		"/>
		<polygon fill="#802E4C" points="172.7,264.7 195,303.6 225.6,279.3 		"/>
		<polygon fill="#751E41" points="171.9,264.7 213.1,258.3 225.6,279.3 		"/>
		<polygon fill="#9E295B" points="172.7,264.7 204.7,223.5 213.6,258.3 		"/>
		<polygon fill="#AF346F" points="204,223.3 234.2,229.3 213.6,258.7 		"/>
		<polygon fill="#B62B57" points="203.7,223.7 233.2,175.3 233.7,229.5 		"/>
		<polyline fill="#9D3A64" points="152.9,265.7 172.7,264.7 195.3,303.6 146.8,266.5 		"/>
		<polygon fill="#922346" points="155.2,241.2 147.5,266.7 172.7,264.7 		"/>
		<polygon fill="#AF3A64" points="155.3,242.1 204.7,223.5 172.7,264.7 		"/>
		<polygon fill="#813359" points="130.5,251.4 155,242.3 147.5,267 		"/>
		<polygon fill="#983363" points="134.2,211.5 130.5,251.4 155.3,242.1 		"/>
		<polygon fill="#D7588D" points="130.2,177.2 155.3,242.1 134.2,211.5 		"/>
		<polygon fill="#CC4072" points="130.2,177.2 176.6,200.7 155.3,242.1 		"/>
		<polygon fill="#813359" points="176.6,200.1 204.7,223.5 155.3,242.1 		"/>
		<polygon fill="#CC4072" points="176.2,200.4 193.5,150.5 204,223.3 		"/>
		<polygon fill="#B24071" points="193.5,151 233.2,175.3 203.9,224.2 		"/>
		<polygon fill="#AA2859" points="195.1,110.9 193.5,151 236,177.5 		"/>
		<polygon fill="#99375A" points="130.4,176.7 100.1,219.3 134.2,211.5 		"/>
		<polygon fill="#802E4C" points="100.1,219.3 134.4,211.1 130.5,251.4 		"/>
		<polygon fill="#B24071" points="99.4,182.8 130.2,177.2 100.1,219.3 		"/>
		<polygon fill="#993961" points="101.4,155.6 100.3,183.4 130.2,177.2 		"/>
		<polyline fill="#B44575" points="122.2,141.7 164.9,143.8 130.2,177.6 100.9,155.2 122.2,141.7 129.7,176.3 		"/>
		<polygon fill="#AF3A64" points="164.9,143.8 171.1,172.5 130.2,177.6 		"/>
		<polyline fill="#BE2758" points="171.1,172.5 130.9,177.5 176.2,200.4 172.1,176 		"/>
		<polygon fill="#AF3A64" points="171.1,172.5 193.5,150.5 176.2,200.4 		"/>
		<polygon fill="#751E41" points="100.3,182.5 100.1,219.3 69.7,174.6 		"/>
		<polygon fill="#813359" points="100.8,182.9 61.9,141.2 69.7,174.6 		"/>
		<polygon fill="#A42956" points="61.9,141.7 95.4,107.4 101.8,155.7 		"/>
		<polygon fill="#CE5390" points="62.4,141.7 101.7,155.2 100.3,182.5 		"/>
		<polygon fill="#922346" points="95.6,108 121.4,142.2 101.7,155.2 		"/>
		<polygon fill="#802E4C" points="95.4,107.4 66.9,98.7 61.9,141.7 		"/>
		<polygon fill="#A42956" points="66.9,98.7 89.8,70.6 95.4,107.4 		"/>
		<polygon fill="#CE5390" points="89.8,70.6 126.7,59.1 95.6,108 		"/>
		<path fill="none" stroke="#FFFFFF" stroke-width="0.25" stroke-miterlimit="10" d="M96.8,108.8"/>
		<polygon fill="#A42956" points="126.7,59.1 146.3,62.8 131.2,96 		"/>
		<polyline fill="#DA8EB7" points="95.6,108 126.7,59.1 131.2,96 96.8,108.8 		"/>
		<polygon fill="#BC4076" points="146.3,62.8 173.9,77.9 131.2,96 		"/>
		<polygon fill="#922346" points="173.9,77.9 196,112.6 159.6,112.8 		"/>
		<polygon fill="#A42956" points="131.2,96 173.9,77.9 159.6,112.8 		"/>
		<polygon fill="#AF3A64" points="95.4,108.5 131.2,96 121.4,142.2 		"/>
		<polygon fill="#B44575" points="131.2,96 159.6,112.8 121.4,142.2 		"/>
		<polygon fill="#AF346F" points="159.6,112.8 195.9,112.4 193.9,151.2 		"/>
		<polyline fill="#CE5390" points="159.7,116.1 165.2,145.6 193.5,150.5 159.6,112.8 		"/>
		<path fill="none" stroke="#FFFFFF" stroke-width="0.25" stroke-miterlimit="10" d="M158.8,116.6"/>
		<polygon fill="#993961" points="165,144.9 193.5,150.5 171.1,172.5 		"/>
		<polyline fill="#AF3A64" points="126.5,138.3 159.6,112.8 165.2,145.3 122.2,141.7 		"/>
	</g>
</g>
</svg>
